{"asset":{"version":"2.0","generator":"Blockbench 5.0.7 glTF exporter"},"scenes":[{"nodes":[22],"name":"blockbench_export"}],"scene":0,"nodes":[{"rotation":[0.11320321376790671,0,0,0.9935718556765875],"translation":[0,0.175,0],"name":"thumb_3"},{"rotation":[0.14780941112961063,0,0,0.9890158633619168],"translation":[0,0.1125,0],"name":"thumb_2","children":[0]},{"rotation":[0.22495105434386498,0,0,0.9743700647852352],"translation":[0,0.315625,0],"name":"thumb_1","children":[1]},{"rotation":[-0.6225146366376195,0,0,0.7826081568524139],"translation":[0,0.078125,0],"name":"thumb","children":[2]},{"rotation":[0.004363309284746571,0,0,0.9999904807207345],"translation":[0,0.14375,0],"name":"index_3"},{"rotation":[0.01745240643728351,0,0,0.9998476951563913],"translation":[0,0.21875,0],"name":"index_2","children":[4]},{"rotation":[0.20791169081775931,0,0,0.9781476007338057],"translation":[0,0.4875,0],"name":"index_1","children":[5]},{"rotation":[-0.2334453638559054,0,0,0.9723699203976766],"translation":[0,0.078125,0],"name":"index","children":[6]},{"translation":[0,0.1875,0],"name":"middle_3"},{"translation":[0,0.25625,0],"name":"middle_2","children":[8]},{"rotation":[0.08280820751220434,0,0,0.9965655024977614],"translation":[0,0.45,0],"name":"middle_1","children":[9]},{"rotation":[-0.07845909572784494,0,0,0.996917333733128],"translation":[0,0.078125,0],"name":"middle","children":[10]},{"translation":[0,0.1875,0],"name":"ring_3"},{"rotation":[-0.02181488503456112,0,0,0.9997620270799091],"translation":[0,0.19375,0],"name":"ring_2","children":[12]},{"rotation":[-0.061048539534856866,0,0,0.9981347984218669],"translation":[0,0.4375,0],"name":"ring_1","children":[13]},{"rotation":[0.08280820751220434,0,0,0.9965655024977614],"translation":[0,0.078125,0],"name":"ring","children":[14]},{"translation":[0,0.1125,0],"name":"little_3"},{"rotation":[-0.02181488503456112,0,0,0.9997620270799091],"translation":[0,0.14375,0],"name":"little_2","children":[16]},{"rotation":[-0.22495105434386498,0,0,0.9743700647852352],"translation":[0,0.45,0],"name":"little_1","children":[17]},{"rotation":[0.24615329302899303,0,0,0.9692309097067544],"translation":[0,0.078125,0],"name":"little","children":[18]},{"translation":[0,0.984375,0],"name":"supply","children":[3,7,11,15,19]},{"name":"hand","children":[20]},{"name":"armature","mesh":0,"children":[21],"skin":0}],"bufferViews":[{"buffer":0,"byteOffset":0,"byteLength":4704,"target":34962,"byteStride":12},{"buffer":0,"byteOffset":4704,"byteLength":4704,"target":34962,"byteStride":12},{"buffer":0,"byteOffset":9408,"byteLength":3136,"target":34962,"byteStride":8},{"buffer":0,"byteOffset":12544,"byteLength":3136,"target":34962,"byteStride":8},{"buffer":0,"byteOffset":15680,"byteLength":6272,"target":34962,"byteStride":16},{"buffer":0,"byteOffset":21952,"byteLength":1176,"target":34963},{"buffer":0,"byteOffset":23128,"byteLength":1408},{"buffer":0,"byteOffset":24536,"byteLength":20},{"buffer":0,"byteOffset":24556,"byteLength":80},{"buffer":0,"byteOffset":24636,"byteLength":8},{"buffer":0,"byteOffset":24644,"byteLength":32},{"buffer":0,"byteOffset":24676,"byteLength":16},{"buffer":0,"byteOffset":24692,"byteLength":64},{"buffer":0,"byteOffset":24756,"byteLength":12},{"buffer":0,"byteOffset":24768,"byteLength":48},{"buffer":0,"byteOffset":24816,"byteLength":16},{"buffer":0,"byteOffset":24832,"byteLength":64},{"buffer":0,"byteOffset":24896,"byteLength":12},{"buffer":0,"byteOffset":24908,"byteLength":48},{"buffer":0,"byteOffset":24956,"byteLength":12},{"buffer":0,"byteOffset":24968,"byteLength":48},{"buffer":0,"byteOffset":25016,"byteLength":8},{"buffer":0,"byteOffset":25024,"byteLength":32},{"buffer":0,"byteOffset":25056,"byteLength":28},{"buffer":0,"byteOffset":25084,"byteLength":112},{"buffer":0,"byteOffset":25196,"byteLength":8},{"buffer":0,"byteOffset":25204,"byteLength":32},{"buffer":0,"byteOffset":25236,"byteLength":12},{"buffer":0,"byteOffset":25248,"byteLength":48},{"buffer":0,"byteOffset":25296,"byteLength":16},{"buffer":0,"byteOffset":25312,"byteLength":64},{"buffer":0,"byteOffset":25376,"byteLength":12},{"buffer":0,"byteOffset":25388,"byteLength":48},{"buffer":0,"byteOffset":25436,"byteLength":16},{"buffer":0,"byteOffset":25452,"byteLength":64},{"buffer":0,"byteOffset":25516,"byteLength":12},{"buffer":0,"byteOffset":25528,"byteLength":48},{"buffer":0,"byteOffset":25576,"byteLength":16},{"buffer":0,"byteOffset":25592,"byteLength":64},{"buffer":0,"byteOffset":25656,"byteLength":12},{"buffer":0,"byteOffset":25668,"byteLength":48}],"buffers":[{"byteLength":25716,"uri":"data:application/octet-stream;base64,"}],"accessors":[{"bufferView":0,"componentType":5126,"count":392,"max":[0.140625,2.077781915664673,0.28125],"min":[-0.15625,0,-0.5544268488883972],"type":"VEC3"},{"bufferView":1,"componentType":5126,"count":392,"max":[1,1,0.9994964599609375],"min":[-1,-1,-0.9999303817749023],"type":"VEC3"},{"bufferView":2,"componentType":5126,"count":392,"max":[0.5078125,0.6314034461975098],"min":[0,0],"type":"VEC2"},{"bufferView":3,"componentType":5123,"count":392,"max":[21,19,6,0],"min":[0,0,0,0],"type":"VEC4"},{"bufferView":4,"componentType":5126,"count":392,"max":[1,0.5,0.32137829065322876,0],"min":[0.3393108546733856,0,0,0],"type":"VEC4"},{"bufferView":5,"componentType":5123,"count":588,"max":[391],"min":[0],"type":"SCALAR"},{"bufferView":6,"componentType":5126,"count":22,"max":[1,0,0,0,0,1,0.9743700623512268,0,0,0.4771587550640106,1,0,0,0,0.5069811940193176,1],"min":[1,0,0,0,0,0.22495105862617493,-0.4771587550640106,0,0,-0.9743700623512268,0.22495105862617493,0,0,-1.9500380754470825,-1.0352681875228882,1],"type":"MAT4"},{"bufferView":7,"componentType":5126,"count":5,"max":[1],"min":[0],"type":"SCALAR"},{"bufferView":8,"componentType":5126,"count":5,"max":[0.34118732810020447,-0.21879293024539948,0.32308509945869446,0.8829001784324646],"min":[0.2612142860889435,-0.45711320638656616,0.23708245158195496,0.7864035964012146],"type":"VEC4"},{"bufferView":9,"componentType":5126,"count":2,"max":[0.5],"min":[0],"type":"SCALAR"},{"bufferView":10,"componentType":5126,"count":2,"max":[0.14780941605567932,0,0,0.9958049058914185],"min":[-0.0915016159415245,0,0,0.9890158772468567],"type":"VEC4"},{"bufferView":11,"componentType":5126,"count":4,"max":[0.375],"min":[0],"type":"SCALAR"},{"bufferView":12,"componentType":5126,"count":4,"max":[0.23249441385269165,0.1197771281003952,0,0.9781476259231567],"min":[0.19926878809928894,-0.0009764294954948127,-0.8195174336433411,0.5237714648246765],"type":"VEC4"},{"bufferView":13,"componentType":5126,"count":3,"max":[0.25],"min":[0],"type":"SCALAR"},{"bufferView":14,"componentType":5126,"count":3,"max":[0.017452405765652657,0.05006850138306618,0,0.9998477101325989],"min":[-0.11051984876394272,0,-0.6386556625366211,0.7611202001571655],"type":"VEC4"},{"bufferView":15,"componentType":5126,"count":4,"max":[0.375],"min":[0],"type":"SCALAR"},{"bufferView":16,"componentType":5126,"count":4,"max":[0.08280820399522781,0,0,0.9965655207633972],"min":[0.03662513196468353,-0.07426842302083969,-0.893792450428009,0.44076964259147644],"type":"VEC4"},{"bufferView":17,"componentType":5126,"count":3,"max":[0.25],"min":[0],"type":"SCALAR"},{"bufferView":18,"componentType":5126,"count":3,"max":[0,0.02236918732523918,0,1],"min":[-0.06145883724093437,0,-0.6741437315940857,0.7356987595558167],"type":"VEC4"},{"bufferView":19,"componentType":5126,"count":3,"max":[0.25],"min":[0],"type":"SCALAR"},{"bufferView":20,"componentType":5126,"count":3,"max":[0.025734001770615578,0,0,0.9981347918510437],"min":[-0.061048541218042374,-0.09846731275320053,-0.852847158908844,0.5126291513442993],"type":"VEC4"},{"bufferView":21,"componentType":5126,"count":2,"max":[0.125],"min":[0],"type":"SCALAR"},{"bufferView":22,"componentType":5126,"count":2,"max":[-0.017869707196950912,0.012512504123151302,0,0.9997619986534119],"min":[-0.02181488461792469,0,-0.5734399557113647,0.8189570903778076],"type":"VEC4"},{"bufferView":23,"componentType":5126,"count":7,"max":[1.25],"min":[0],"type":"SCALAR"},{"bufferView":24,"componentType":5126,"count":7,"max":[0.01137610711157322,0.13002949953079224,-0.0850898027420044,0.9961947202682495],"min":[-0.01886395551264286,-0.21561600267887115,-0.19509032368659973,0.9725809097290039],"type":"VEC4"},{"bufferView":25,"componentType":5126,"count":2,"max":[0.3333333432674408],"min":[0],"type":"SCALAR"},{"bufferView":26,"componentType":5126,"count":2,"max":[0.22495105862617493,0,0,0.9930684566497803],"min":[0.11753739416599274,0,0,0.9743700623512268],"type":"VEC4"},{"bufferView":27,"componentType":5126,"count":3,"max":[2],"min":[0],"type":"SCALAR"},{"bufferView":28,"componentType":5126,"count":3,"max":[0.14780941605567932,0,0,0.9999904632568359],"min":[-0.004363309126347303,0,0,0.9890158772468567],"type":"VEC4"},{"bufferView":29,"componentType":5126,"count":4,"max":[0.25],"min":[0],"type":"SCALAR"},{"bufferView":30,"componentType":5126,"count":4,"max":[0.2312188595533371,0.13668875396251678,0,0.9781476259231567],"min":[0.18807123601436615,0,-0.7441404461860657,0.6262590289115906],"type":"VEC4"},{"bufferView":31,"componentType":5126,"count":3,"max":[0.1666666716337204],"min":[0],"type":"SCALAR"},{"bufferView":32,"componentType":5126,"count":3,"max":[0.017452405765652657,0,0,0.9998477101325989],"min":[0.012606989592313766,-0.012068566866219044,-0.6914077401161194,0.7222539186477661],"type":"VEC4"},{"bufferView":33,"componentType":5126,"count":4,"max":[0.25],"min":[0],"type":"SCALAR"},{"bufferView":34,"componentType":5126,"count":4,"max":[0.08280820399522781,0,0,0.9965655207633972],"min":[0.04140410199761391,-0.07171401381492615,-0.8630510568618774,0.4982827603816986],"type":"VEC4"},{"bufferView":35,"componentType":5126,"count":3,"max":[0.1666666716337204],"min":[0],"type":"SCALAR"},{"bufferView":36,"componentType":5126,"count":3,"max":[0,0.01886395551264286,0,1],"min":[-0.0850898027420044,0,-0.5352550148963928,0.8401820659637451],"type":"VEC4"},{"bufferView":37,"componentType":5126,"count":4,"max":[0.25],"min":[0],"type":"SCALAR"},{"bufferView":38,"componentType":5126,"count":4,"max":[-0.04025210067629814,0.04589872062206268,0,0.9981347918510437],"min":[-0.061048541218042374,0,-0.7504374980926514,0.6581159830093384],"type":"VEC4"},{"bufferView":39,"componentType":5126,"count":3,"max":[0.1666666716337204],"min":[0],"type":"SCALAR"},{"bufferView":40,"componentType":5126,"count":3,"max":[0.06676517426967621,0.009219368919730186,0,0.9997619986534119],"min":[-0.02181488461792469,-0.056022632867097855,-0.640341579914093,0.7631294131278992],"type":"VEC4"}],"materials":[{"pbrMetallicRoughness":{"metallicFactor":0,"roughnessFactor":1,"baseColorTexture":{"index":0}},"alphaMode":"MASK","alphaCutoff":0.05,"doubleSided":true}],"textures":[{"sampler":0,"source":0,"name":"hand.png"}],"samplers":[{"magFilter":9728,"minFilter":9728,"wrapS":33071,"wrapT":33071}],"images":[{"mimeType":"image/png","uri":"data:image/png;base64,"}],"meshes":[{"primitives":[{"mode":4,"attributes":{"POSITION":0,"NORMAL":1,"TEXCOORD_0":2,"JOINTS_0":3,"WEIGHTS_0":4},"indices":5,"material":0}]}],"skins":[{"inverseBindMatrices":6,"joints":[21,20,3,2,1,0,7,6,5,4,11,10,9,8,15,14,13,12,19,18,17,16],"skeleton":21}],"animations":[{"name":"animation2","samplers":[{"input":7,"output":8,"interpolation":"LINEAR"},{"input":9,"output":10,"interpolation":"LINEAR"},{"input":11,"output":12,"interpolation":"LINEAR"},{"input":13,"output":14,"interpolation":"LINEAR"},{"input":15,"output":16,"interpolation":"LINEAR"},{"input":17,"output":18,"interpolation":"LINEAR"},{"input":19,"output":20,"interpolation":"LINEAR"},{"input":21,"output":22,"interpolation":"LINEAR"}],"channels":[{"sampler":0,"target":{"node":20,"path":"rotation"}},{"sampler":1,"target":{"node":1,"path":"rotation"}},{"sampler":2,"target":{"node":6,"path":"rotation"}},{"sampler":3,"target":{"node":5,"path":"rotation"}},{"sampler":4,"target":{"node":10,"path":"rotation"}},{"sampler":5,"target":{"node":9,"path":"rotation"}},{"sampler":6,"target":{"node":14,"path":"rotation"}},{"sampler":7,"target":{"node":13,"path":"rotation"}}]},{"name":"animation","samplers":[{"input":23,"output":24,"interpolation":"LINEAR"},{"input":25,"output":26,"interpolation":"LINEAR"},{"input":27,"output":28,"interpolation":"LINEAR"},{"input":29,"output":30,"interpolation":"LINEAR"},{"input":31,"output":32,"interpolation":"LINEAR"},{"input":33,"output":34,"interpolation":"LINEAR"},{"input":35,"output":36,"interpolation":"LINEAR"},{"input":37,"output":38,"interpolation":"LINEAR"},{"input":39,"output":40,"interpolation":"LINEAR"}],"channels":[{"sampler":0,"target":{"node":20,"path":"rotation"}},{"sampler":1,"target":{"node":2,"path":"rotation"}},{"sampler":2,"target":{"node":1,"path":"rotation"}},{"sampler":3,"target":{"node":6,"path":"rotation"}},{"sampler":4,"target":{"node":5,"path":"rotation"}},{"sampler":5,"target":{"node":10,"path":"rotation"}},{"sampler":6,"target":{"node":9,"path":"rotation"}},{"sampler":7,"target":{"node":14,"path":"rotation"}},{"sampler":8,"target":{"node":13,"path":"rotation"}}]}]}