{"asset":{"version":"2.0","generator":"Blockbench 5.0.7 glTF exporter"},"scenes":[{"nodes":[22],"name":"blockbench_export"}],"scene":0,"nodes":[{"rotation":[0.11320321376790671,0,0,0.9935718556765875],"translation":[0,0.175,0],"name":"thumb_3"},{"rotation":[0.14780941112961063,0,0,0.9890158633619168],"translation":[0,0.1125,0],"name":"thumb_2","children":[0]},{"rotation":[0.22495105434386498,0,0,0.9743700647852352],"translation":[0,0.315625,0],"name":"thumb_1","children":[1]},{"rotation":[-0.6225146366376195,0,0,0.7826081568524139],"translation":[0,0.078125,0],"name":"thumb","children":[2]},{"rotation":[0.004363309284746571,0,0,0.9999904807207345],"translation":[0,0.14375,0],"name":"index_3"},{"rotation":[0.01745240643728351,0,0,0.9998476951563913],"translation":[0,0.21875,0],"name":"index_2","children":[4]},{"rotation":[0.20791169081775931,0,0,0.9781476007338057],"translation":[0,0.4875,0],"name":"index_1","children":[5]},{"rotation":[-0.2334453638559054,0,0,0.9723699203976766],"translation":[0,0.078125,0],"name":"index","children":[6]},{"translation":[0,0.1875,0],"name":"middle_3"},{"translation":[0,0.25625,0],"name":"middle_2","children":[8]},{"rotation":[0.08280820751220434,0,0,0.9965655024977614],"translation":[0,0.45,0],"name":"middle_1","children":[9]},{"rotation":[-0.07845909572784494,0,0,0.996917333733128],"translation":[0,0.078125,0],"name":"middle","children":[10]},{"translation":[0,0.1875,0],"name":"ring_3"},{"rotation":[-0.02181488503456112,0,0,0.9997620270799091],"translation":[0,0.19375,0],"name":"ring_2","children":[12]},{"rotation":[-0.061048539534856866,0,0,0.9981347984218669],"translation":[0,0.4375,0],"name":"ring_1","children":[13]},{"rotation":[0.08280820751220434,0,0,0.9965655024977614],"translation":[0,0.078125,0],"name":"ring","children":[14]},{"translation":[0,0.1125,0],"name":"little_3"},{"rotation":[-0.02181488503456112,0,0,0.9997620270799091],"translation":[0,0.14375,0],"name":"little_2","children":[16]},{"rotation":[-0.22495105434386498,0,0,0.9743700647852352],"translation":[0,0.45,0],"name":"little_1","children":[17]},{"rotation":[0.24615329302899303,0,0,0.9692309097067544],"translation":[0,0.078125,0],"name":"little","children":[18]},{"translation":[0,0.984375,0],"name":"supply","children":[3,7,11,15,19]},{"name":"hand","children":[20]},{"name":"armature","mesh":0,"children":[21],"skin":0}],"bufferViews":[{"buffer":0,"byteOffset":0,"byteLength":4704,"target":34962,"byteStride":12},{"buffer":0,"byteOffset":4704,"byteLength":4704,"target":34962,"byteStride":12},{"buffer":0,"byteOffset":9408,"byteLength":3136,"target":34962,"byteStride":8},{"buffer":0,"byteOffset":12544,"byteLength":3136,"target":34962,"byteStride":8},{"buffer":0,"byteOffset":15680,"byteLength":6272,"target":34962,"byteStride":16},{"buffer":0,"byteOffset":21952,"byteLength":1176,"target":34963},{"buffer":0,"byteOffset":23128,"byteLength":1408},{"buffer":0,"byteOffset":24536,"byteLength":4},{"buffer":0,"byteOffset":24540,"byteLength":16}],"buffers":[{"byteLength":24556,"uri":"data:application/octet-stream;base64,"}],"accessors":[{"bufferView":0,"componentType":5126,"count":392,"max":[0.15625,2.077781915664673,0.28125],"min":[-0.140625,0,-0.5544268488883972],"type":"VEC3"},{"bufferView":1,"componentType":5126,"count":392,"max":[1,1,0.9994964599609375],"min":[-1,-1,-0.9999303817749023],"type":"VEC3"},{"bufferView":2,"componentType":5126,"count":392,"max":[0.5078125,0.6314034461975098],"min":[0,0],"type":"VEC2"},{"bufferView":3,"componentType":5123,"count":392,"max":[21,19,6,0],"min":[0,0,0,0],"type":"VEC4"},{"bufferView":4,"componentType":5126,"count":392,"max":[1,0.5,0.32137829065322876,0],"min":[0.3393108546733856,0,0,0],"type":"VEC4"},{"bufferView":5,"componentType":5123,"count":588,"max":[391],"min":[0],"type":"SCALAR"},{"bufferView":6,"componentType":5126,"count":22,"max":[1,0,0,0,0,1,0.9743700623512268,0,0,0.4771587550640106,1,0,0,0,0.5069811940193176,1],"min":[1,0,0,0,0,0.22495105862617493,-0.4771587550640106,0,0,-0.9743700623512268,0.22495105862617493,0,0,-1.9500380754470825,-1.0352681875228882,1],"type":"MAT4"},{"bufferView":7,"componentType":5126,"count":1,"max":[0],"min":[0],"type":"SCALAR"},{"bufferView":8,"componentType":5126,"count":1,"max":[0.22233296930789948,0.14822447299957275,-0.034220315515995026,0.9630298614501953],"min":[0.22233296930789948,0.14822447299957275,-0.034220315515995026,0.9630298614501953],"type":"VEC4"}],"materials":[{"pbrMetallicRoughness":{"metallicFactor":0,"roughnessFactor":1,"baseColorTexture":{"index":0}},"alphaMode":"MASK","alphaCutoff":0.05,"doubleSided":true}],"textures":[{"sampler":0,"source":0,"name":"hand.png"}],"samplers":[{"magFilter":9728,"minFilter":9728,"wrapS":33071,"wrapT":33071}],"images":[{"mimeType":"image/png","uri":"data:image/png;base64,"}],"meshes":[{"primitives":[{"mode":4,"attributes":{"POSITION":0,"NORMAL":1,"TEXCOORD_0":2,"JOINTS_0":3,"WEIGHTS_0":4},"indices":5,"material":0}]}],"skins":[{"inverseBindMatrices":6,"joints":[21,20,3,2,1,0,7,6,5,4,11,10,9,8,15,14,13,12,19,18,17,16],"skeleton":21}],"animations":[{"name":"animation","samplers":[{"input":7,"output":8,"interpolation":"LINEAR"}],"channels":[{"sampler":0,"target":{"node":2,"path":"rotation"}}]}]}