{"asset":{"version":"2.0","generator":"Blockbench 5.0.7 glTF exporter"},"scenes":[{"nodes":[0],"name":"blockbench_export"}],"scene":0,"nodes":[{"name":"mesh","mesh":0}],"bufferViews":[{"buffer":0,"byteOffset":0,"byteLength":3072,"target":34962,"byteStride":12},{"buffer":0,"byteOffset":3072,"byteLength":3072,"target":34962,"byteStride":12},{"buffer":0,"byteOffset":6144,"byteLength":2048,"target":34962,"byteStride":8},{"buffer":0,"byteOffset":8192,"byteLength":768,"target":34963}],"buffers":[{"byteLength":8960,"uri":"data:application/octet-stream;base64,"}],"accessors":[{"bufferView":0,"componentType":5126,"count":256,"max":[1.8125,3.1875,0.875],"min":[-2.1875,-0.625,-0.875],"type":"VEC3"},{"bufferView":1,"componentType":5126,"count":256,"max":[0.8436614871025085,0.8374289870262146,1],"min":[-0.7395431995391846,-0.8741572499275208,-1],"type":"VEC3"},{"bufferView":2,"componentType":5126,"count":256,"max":[0.4871269464492798,0.5086126327514648],"min":[0,0],"type":"VEC2"},{"bufferView":3,"componentType":5123,"count":384,"max":[255],"min":[0],"type":"SCALAR"}],"materials":[{"pbrMetallicRoughness":{"metallicFactor":0,"roughnessFactor":1,"baseColorTexture":{"index":0}},"alphaMode":"MASK","alphaCutoff":0.05,"doubleSided":true}],"textures":[{"sampler":0,"source":0,"name":"texture"}],"samplers":[{"magFilter":9728,"minFilter":9728,"wrapS":33071,"wrapT":33071}],"images":[{"mimeType":"image/png","uri":"data:image/png;base64,"}],"meshes":[{"primitives":[{"mode":4,"attributes":{"POSITION":0,"NORMAL":1,"TEXCOORD_0":2},"indices":3,"material":0}]}]}