{"asset":{"version":"2.0","generator":"Blockbench 5.0.7 glTF exporter"},"scenes":[{"nodes":[0],"name":"blockbench_export"}],"scene":0,"nodes":[{"name":"mesh","mesh":0}],"bufferViews":[{"buffer":0,"byteOffset":0,"byteLength":3096,"target":34962,"byteStride":12},{"buffer":0,"byteOffset":3096,"byteLength":3096,"target":34962,"byteStride":12},{"buffer":0,"byteOffset":6192,"byteLength":2064,"target":34962,"byteStride":8},{"buffer":0,"byteOffset":8256,"byteLength":768,"target":34963}],"buffers":[{"byteLength":9024,"uri":"data:application/octet-stream;base64,"}],"accessors":[{"bufferView":0,"componentType":5126,"count":258,"max":[0.875,1.3125,0.5],"min":[-1.0625,0,-1.25],"type":"VEC3"},{"bufferView":1,"componentType":5126,"count":258,"max":[0.9684960246086121,1,1],"min":[-0.9294622540473938,-1,-0.9284766912460327],"type":"VEC3"},{"bufferView":2,"componentType":5126,"count":258,"max":[0.5321502685546875,0.55078125],"min":[0.0002453124907333404,0],"type":"VEC2"},{"bufferView":3,"componentType":5123,"count":384,"max":[257],"min":[0],"type":"SCALAR"}],"materials":[{"pbrMetallicRoughness":{"metallicFactor":0,"roughnessFactor":1,"baseColorTexture":{"index":0}},"alphaMode":"MASK","alphaCutoff":0.05,"doubleSided":true}],"textures":[{"sampler":0,"source":0,"name":"texture"}],"samplers":[{"magFilter":9728,"minFilter":9728,"wrapS":33071,"wrapT":33071}],"images":[{"mimeType":"image/png","uri":"data:image/png;base64,"}],"meshes":[{"primitives":[{"mode":4,"attributes":{"POSITION":0,"NORMAL":1,"TEXCOORD_0":2},"indices":3,"material":0}]}]}